# xmcd CD database file
#
# Track frame offsets:
#	150
#	21815
#	40725
#	58412
#	68620
#	85887
#	106735
#	125120
#	147580
#	169895
#	193215
#
# Disc length: 2764 seconds
#
# Revision: 3
# Processed by: cddbd v1.5.2PL0 Copyright (c) Steve Scherf et al.
# Submitted via: CDex 1.81
#
DISCID=a10aca0b
DTITLE=Gwyn Ashton - Fang It!
DYEAR=2000
DGENRE=Blues
TTITLE0=Breakin' All The Rules
TTITLE1=Livin' On A Faultline
TTITLE2=Gettin' On Down
TTITLE3=How Can I Leave You (If You're Gonna Come Too?)
TTITLE4=Gettin' Better
TTITLE5=Cold As Ice - (Tribute To Albert Collins)
TTITLE6=Leave That Girl Alone
TTITLE7=Hot In Here
TTITLE8=I Boogied
TTITLE9=Who's That Coming?
TTITLE10=Faded Memory
EXTD=YEAR: 2000
EXTT0=
EXTT1=
EXTT2=
EXTT3=
EXTT4=
EXTT5=
EXTT6=
EXTT7=
EXTT8=
EXTT9=
EXTT10=
PLAYORDER=
